# xmcd
#
# Track frame offsets:
#	150
#	28834
#	75968
#	98396
#	133230
#	162445
#	203864
#
# Disc length: 2982 seconds
#
# Revision: 1
# Processed by: cddbd v1.5.2PL0 Copyright (c) Steve Scherf et al.
# Submitted via: audiograbber 1.83.01
#
DISCID=500ba407
DTITLE=Grateful Dead - 76-09-30 Mershon Auditorium, Ohio State Uni, Columbus OH
DYEAR=1900
DGENRE=
TTITLE0=The Music Never Stopped
TTITLE1=Sugaree
TTITLE2=New Minglewood Blues
TTITLE3=Ramble On Rose
TTITLE4=Looks Like Rain
TTITLE5=Peggy-O
TTITLE6=El Paso
EXTD=
EXTT0=
EXTT1=
EXTT2=
EXTT3=
EXTT4=
EXTT5=
EXTT6=
PLAYORDER=
